<svg width="50" height="50" viewBox="0 0 50 50" fill="none" xmlns="http://www.w3.org/2000/svg">
<path d="M49.3698 46.4188L35.0241 32.0628C37.8522 28.6711 39.5532 24.3366 39.5532 19.6026C39.5532 8.80227 30.6896 0.0206299 19.7869 0.0206299C8.88411 0.0206299 0 8.81251 0 19.6128C0 30.4131 8.86361 39.1947 19.7664 39.1947C24.398 39.1947 28.6607 37.6064 32.0422 34.9525L46.4392 49.3494C47.2794 50.1897 48.5296 50.1897 49.3698 49.3494C50.2101 48.5092 50.2101 47.2591 49.3698 46.4188ZM4.20125 19.6128C4.20125 11.1283 11.1897 4.23213 19.7664 4.23213C28.3431 4.23213 35.3315 11.1283 35.3315 19.6128C35.3315 28.0973 28.3431 34.9935 19.7664 34.9935C11.1897 34.9935 4.20125 28.087 4.20125 19.6128Z" fill="#7292A9"/>
</svg>
