<svg width="50" height="50" viewBox="0 0 50 50" fill="none" xmlns="http://www.w3.org/2000/svg">
<path d="M0 25C0 11.1929 11.1929 0 25 0V0C38.8071 0 50 11.1929 50 25V25C50 38.8071 38.8071 50 25 50V50C11.1929 50 0 38.8071 0 25V25Z" fill="#7292A9"/>
<path d="M14.7058 16.4706C14.7058 15.496 15.4959 14.7059 16.4705 14.7059H34.1176C35.0922 14.7059 35.8823 15.496 35.8823 16.4706V17.1765C35.8823 18.1511 35.0922 18.9412 34.1176 18.9412H16.4705C15.4959 18.9412 14.7058 18.1511 14.7058 17.1765V16.4706Z" fill="white"/>
<path d="M14.7058 24.9412C14.7058 23.9666 15.4959 23.1765 16.4705 23.1765H34.1176C35.0922 23.1765 35.8823 23.9666 35.8823 24.9412V25.6471C35.8823 26.6217 35.0922 27.4118 34.1176 27.4118H16.4705C15.4959 27.4118 14.7058 26.6217 14.7058 25.6471V24.9412Z" fill="white"/>
<path d="M14.7058 33.4118C14.7058 32.4372 15.4959 31.6471 16.4705 31.6471H34.1176C35.0922 31.6471 35.8823 32.4372 35.8823 33.4118V34.1177C35.8823 35.0923 35.0922 35.8824 34.1176 35.8824H16.4705C15.4959 35.8824 14.7058 35.0923 14.7058 34.1177V33.4118Z" fill="white"/>
</svg>
