<svg width="121" height="121" viewBox="0 0 121 121" fill="none" xmlns="http://www.w3.org/2000/svg">
<circle cx="60.5" cy="60.5" r="60.5" fill="url(#paint0_radial_242_249)"/>
<g filter="url(#filter0_d_242_249)">
<path d="M82.5 37.5C73.077 37.5 66.2505 44.5515 59.9955 52.557C53.7405 44.5515 46.9185 37.5 37.5 37.5C25.0935 37.5 15 47.5935 15 60C14.9928 62.9526 15.5691 65.8775 16.6958 68.6067C17.8225 71.3358 19.4775 73.8154 21.5655 75.903C23.6453 77.9999 26.1208 79.6629 28.8485 80.7954C31.5762 81.9279 34.5016 82.5073 37.455 82.5H37.509C46.9095 82.4775 53.7315 75.426 59.991 67.4205C66.2505 75.4395 73.077 82.5 82.5 82.5C94.9065 82.5 105 72.4065 105 60C105 47.5935 94.9065 37.5 82.5 37.5ZM37.491 73.5H37.455C33.8595 73.5 30.48 72.096 27.942 69.549C26.061 67.6571 24.7818 65.2509 24.2657 62.6334C23.7495 60.0159 24.0194 57.3043 25.0413 54.8399C26.0632 52.3755 27.7915 50.2686 30.0085 48.7845C32.2256 47.3004 34.8321 46.5056 37.5 46.5C43.485 46.5 49.02 52.971 54.357 59.991C49.011 67.0065 43.476 73.4865 37.491 73.5ZM82.5 73.5C76.515 73.5 70.9755 67.02 65.6295 59.991C70.971 52.971 76.506 46.5 82.5 46.5C89.943 46.5 96 52.557 96 60C96 67.443 89.943 73.5 82.5 73.5Z" fill="url(#paint1_linear_242_249)"/>
<path d="M59.6015 52.8648L59.9955 53.3691L60.3895 52.8648C66.6542 44.847 73.3446 38 82.5 38C94.6304 38 104.5 47.8696 104.5 60C104.5 72.1304 94.6304 82 82.5 82C73.3448 82 66.6545 75.1445 60.3851 67.1128L59.9913 66.6083L59.5971 67.1125C53.3277 75.1307 46.6414 81.9781 37.5078 82H37.455H37.4538C34.5666 82.0071 31.7067 81.4407 29.0402 80.3336C26.3737 79.2265 23.9537 77.6008 21.9205 75.5509L21.919 75.5494C19.8776 73.5084 18.2595 71.0841 17.158 68.4159C16.0564 65.7476 15.4929 62.8879 15.5 60.0012V60C15.5 47.8696 25.3696 38 37.5 38C46.6508 38 53.3367 44.8468 59.6015 52.8648ZM37.491 74H37.4921C40.667 73.9928 43.6629 72.2728 46.4965 69.7443C49.3359 67.2106 52.0814 63.8022 54.7547 60.2941L54.9854 59.9914L54.755 59.6884C52.086 56.1777 49.3427 52.7703 46.5042 50.2398C43.6714 47.7144 40.6752 46 37.5 46L37.499 46C34.7324 46.0058 32.0294 46.83 29.7304 48.369C27.4314 49.908 25.6392 52.0928 24.5794 54.6483C23.5197 57.2039 23.2398 60.0159 23.7751 62.7301C24.3104 65.4444 25.6368 67.9396 27.5874 69.9015L27.5878 69.9019C30.2196 72.543 33.7265 74 37.455 74H37.491ZM65.2316 59.6882L65.0013 59.9909L65.2315 60.2937C67.905 63.8088 70.6516 67.2207 73.4923 69.7545C76.3272 72.2831 79.3246 74 82.5 74C90.2191 74 96.5 67.7191 96.5 60C96.5 52.2809 90.2191 46 82.5 46C79.3205 46 76.322 47.7142 73.4875 50.2397C70.6472 52.7702 67.9028 56.1776 65.2316 59.6882Z" stroke="url(#paint2_linear_242_249)"/>
</g>
<defs>
<filter id="filter0_d_242_249" x="12.9999" y="37.5" width="98.0001" height="53.0001" filterUnits="userSpaceOnUse" color-interpolation-filters="sRGB">
<feFlood flood-opacity="0" result="BackgroundImageFix"/>
<feColorMatrix in="SourceAlpha" type="matrix" values="0 0 0 0 0 0 0 0 0 0 0 0 0 0 0 0 0 0 127 0" result="hardAlpha"/>
<feOffset dx="2" dy="4"/>
<feGaussianBlur stdDeviation="2"/>
<feComposite in2="hardAlpha" operator="out"/>
<feColorMatrix type="matrix" values="0 0 0 0 0.594167 0 0 0 0 0.689515 0 0 0 0 0.775 0 0 0 1 0"/>
<feBlend mode="normal" in2="BackgroundImageFix" result="effect1_dropShadow_242_249"/>
<feBlend mode="normal" in="SourceGraphic" in2="effect1_dropShadow_242_249" result="shape"/>
</filter>
<radialGradient id="paint0_radial_242_249" cx="0" cy="0" r="1" gradientUnits="userSpaceOnUse" gradientTransform="translate(29 -7.5) rotate(61.2492) scale(146.569)">
<stop stop-color="white"/>
<stop offset="1" stop-color="#98B8D6"/>
</radialGradient>
<linearGradient id="paint1_linear_242_249" x1="24.5" y1="29.5" x2="62" y2="98.5" gradientUnits="userSpaceOnUse">
<stop stop-color="white"/>
<stop offset="1" stop-color="#D2DCF1"/>
</linearGradient>
<linearGradient id="paint2_linear_242_249" x1="52.5" y1="35" x2="72" y2="105" gradientUnits="userSpaceOnUse">
<stop stop-color="white" stop-opacity="0.95"/>
<stop offset="1" stop-color="#98B8D6" stop-opacity="0.7"/>
</linearGradient>
</defs>
</svg>
