<svg width="50" height="50" viewBox="0 0 50 50" fill="none" xmlns="http://www.w3.org/2000/svg">
<circle cx="25" cy="25" r="23.5" fill="white" stroke="#7292A9" stroke-width="3"/>
<path d="M32.3174 32.8163C31.6283 33.5054 30.511 33.5054 29.8219 32.8163L17.3443 20.3388C16.6552 19.6497 16.6552 18.5324 17.3443 17.8433L17.8434 17.3442C18.5326 16.6551 19.6498 16.6551 20.339 17.3442L32.8165 29.8217C33.5056 30.5108 33.5056 31.6281 32.8165 32.3172L32.3174 32.8163Z" fill="#7292A9"/>
<path d="M17.1835 32.1564C16.4944 31.4672 16.4944 30.35 17.1835 29.6608L29.661 17.1833C30.3501 16.4942 31.4674 16.4942 32.1565 17.1833L32.6556 17.6824C33.3447 18.3716 33.3447 19.4888 32.6556 20.1779L20.1781 32.6555C19.489 33.3446 18.3717 33.3446 17.6826 32.6555L17.1835 32.1564Z" fill="#7292A9"/>
</svg>
