<svg width="50" height="50" viewBox="0 0 50 50" fill="none" xmlns="http://www.w3.org/2000/svg">
<path d="M0 25C0 11.1929 11.1929 0 25 0V0C38.8071 0 50 11.1929 50 25V25C50 38.8071 38.8071 50 25 50V50C11.1929 50 0 38.8071 0 25V25Z" fill="#98B8D6"/>
<path d="M34.1911 15.8088C30.3418 15.8088 27.5532 18.6894 24.9981 21.9596C22.4429 18.6894 19.6562 15.8088 15.8087 15.8088C10.7407 15.8088 6.61757 19.932 6.61757 25C6.61461 26.2061 6.85003 27.401 7.31029 28.5158C7.77056 29.6307 8.44659 30.6436 9.29955 31.4963C10.1491 32.3529 11.1604 33.0323 12.2746 33.4949C13.3889 33.9575 14.5839 34.1942 15.7904 34.1912H15.8124C19.6525 34.182 22.4393 31.3015 24.9962 28.0313C27.5532 31.307 30.3418 34.1912 34.1911 34.1912C39.2591 34.1912 43.3823 30.068 43.3823 25C43.3823 19.932 39.2591 15.8088 34.1911 15.8088ZM15.8051 30.5147L15.7904 32.353V30.5147C14.3216 30.5147 12.9411 29.9412 11.9043 28.9007C11.1359 28.1279 10.6134 27.145 10.4026 26.0758C10.1917 25.0065 10.3019 23.8988 10.7194 22.8921C11.1369 21.8854 11.8429 21.0248 12.7485 20.4185C13.6541 19.8123 14.7189 19.4876 15.8087 19.4853C18.2536 19.4853 20.5146 22.1287 22.6948 24.9963C20.511 27.8621 18.2499 30.5092 15.8051 30.5147ZM34.1911 30.5147C31.7462 30.5147 29.4834 27.8677 27.2996 24.9963C29.4815 22.1287 31.7426 19.4853 34.1911 19.4853C37.2315 19.4853 39.7058 21.9596 39.7058 25C39.7058 28.0405 37.2315 30.5147 34.1911 30.5147Z" fill="#FEFEFE"/>
</svg>
