<svg width="45" height="51" viewBox="0 0 45 51" fill="none" xmlns="http://www.w3.org/2000/svg">
<path d="M27.964 35.108L23.752 35C21.928 35 20.332 35.096 18.964 35.288C18.82 35.096 18.748 34.892 18.748 34.676L18.82 34.388C19.756 34.172 20.404 33.932 20.764 33.668C21.148 33.38 21.34 33.068 21.34 32.732C21.34 32.396 21.172 31.724 20.836 30.716L18.712 25.316C17.416 25.244 15.868 25.208 14.068 25.208L8.92 25.316L8.02 27.62C6.82 30.596 6.22 32.708 6.22 33.956C6.772 33.98 7.612 33.992 8.74 33.992C8.788 34.16 8.812 34.352 8.812 34.568C8.812 34.784 8.788 34.964 8.74 35.108L4.924 35C3.412 35 2.092 35.096 0.964 35.288C0.82 35.12 0.748 34.916 0.748 34.676L0.82 34.388C2.044 34.052 2.932 33.524 3.484 32.804C4.06 32.084 4.912 30.452 6.04 27.908L14.932 7.748H15.508L23.788 28.916C23.932 29.372 24.304 30.26 24.904 31.58C25.528 32.876 25.924 33.644 26.092 33.884C26.764 33.956 27.388 33.992 27.964 33.992C28.036 34.16 28.072 34.352 28.072 34.568C28.072 34.784 28.036 34.964 27.964 35.108ZM9.46 23.912L14.068 24.056C15.724 24.056 17.116 24.02 18.244 23.948L14.068 12.932L9.46 23.912Z" fill="#7292A9"/>
<rect x="36" y="9" width="2" height="25" fill="#7292A9"/>
<path d="M31 30.5L31 28L37 33.5L37 36L31 30.5Z" fill="#7292A9"/>
<path d="M43 28L37 33.5V36L43 30.5L43 28Z" fill="#7292A9"/>
</svg>
