<svg width="50" height="50" viewBox="0 0 50 50" fill="none" xmlns="http://www.w3.org/2000/svg">
<circle cx="25" cy="25" r="24" stroke="#7292A9" stroke-width="2"/>
<path d="M15 16.4706C15 15.496 15.7901 14.7059 16.7647 14.7059H34.4118C35.3864 14.7059 36.1765 15.496 36.1765 16.4706V17.1765C36.1765 18.1511 35.3864 18.9412 34.4118 18.9412H16.7647C15.7901 18.9412 15 18.1511 15 17.1765V16.4706Z" fill="#7292A9"/>
<path d="M15 24.9412C15 23.9666 15.7901 23.1765 16.7647 23.1765H34.4118C35.3864 23.1765 36.1765 23.9666 36.1765 24.9412V25.6471C36.1765 26.6217 35.3864 27.4118 34.4118 27.4118H16.7647C15.7901 27.4118 15 26.6217 15 25.6471V24.9412Z" fill="#7292A9"/>
<path d="M15 33.4118C15 32.4372 15.7901 31.6471 16.7647 31.6471H34.4118C35.3864 31.6471 36.1765 32.4372 36.1765 33.4118V34.1177C36.1765 35.0923 35.3864 35.8824 34.4118 35.8824H16.7647C15.7901 35.8824 15 35.0923 15 34.1177V33.4118Z" fill="#7292A9"/>
</svg>
