<svg width="25" height="25" viewBox="0 0 25 25" fill="none" xmlns="http://www.w3.org/2000/svg">
<path d="M23.4761 24.2247C22.4424 25.2584 20.7665 25.2584 19.7328 24.2247L1.01656 5.50848C-0.0171158 4.47481 -0.0171154 2.7989 1.01656 1.76523L1.76521 1.01658C2.79888 -0.0170914 4.47479 -0.0170904 5.50846 1.01658L24.2247 19.7328C25.2584 20.7665 25.2584 22.4424 24.2247 23.4761L23.4761 24.2247Z" fill="#7292A9"/>
<path d="M0.775253 23.2348C-0.258419 22.2011 -0.258417 20.5252 0.775254 19.4915L19.4915 0.775253C20.5252 -0.258418 22.2011 -0.258417 23.2348 0.775253L23.9834 1.52391C25.0171 2.55758 25.0171 4.23349 23.9834 5.26716L5.26716 23.9834C4.23349 25.0171 2.55758 25.0171 1.52391 23.9834L0.775253 23.2348Z" fill="#7292A9"/>
</svg>
