<svg width="505" height="174" viewBox="0 0 505 174" fill="none" xmlns="http://www.w3.org/2000/svg">
<path d="M237.343 50.4462C222.627 50.4462 211.965 61.7389 202.196 74.5593C192.427 61.7389 181.773 50.4462 167.064 50.4462C147.687 50.4462 131.923 66.6105 131.923 86.4791C131.912 91.2075 132.812 95.8916 134.572 100.262C136.332 104.633 138.916 108.604 142.177 111.947C145.425 115.306 149.291 117.969 153.552 119.782C157.812 121.596 162.38 122.523 166.993 122.512H167.078C181.758 122.476 192.413 111.183 202.189 98.3628C211.965 111.205 222.627 122.512 237.343 122.512C256.72 122.512 272.484 106.347 272.484 86.4791C272.484 66.6105 256.72 50.4462 237.343 50.4462ZM167.049 108.099L166.993 115.306V108.099C161.377 108.099 156.1 105.85 152.136 101.771C149.198 98.7416 147.2 94.8882 146.394 90.6963C145.588 86.5046 146.009 82.1619 147.605 78.2153C149.202 74.2687 151.9 70.8945 155.363 68.5179C158.826 66.1412 162.897 64.8683 167.064 64.8593C176.411 64.8593 185.055 75.2224 193.391 86.4647C185.041 97.6997 176.396 108.077 167.049 108.099ZM237.343 108.099C227.996 108.099 219.345 97.7214 210.995 86.4647C219.338 75.2224 227.982 64.8593 237.343 64.8593C248.968 64.8593 258.427 74.5593 258.427 86.4791C258.427 98.3988 248.968 108.099 237.343 108.099Z" fill="url(#paint0_linear_245_287)"/>
<path d="M70.8423 79.394H85.2302V109.276C77.1827 118.362 65.6805 122.904 50.7236 122.904C38.124 122.904 27.5566 118.653 19.0213 110.151C10.5674 101.649 6.34045 90.8968 6.34045 77.8936C6.34045 64.8905 10.6487 54.0546 19.2652 45.3859C27.963 36.7171 38.4491 32.3827 50.7236 32.3827C62.998 32.3827 73.1996 36.0503 81.3284 43.3854L73.6467 54.6381C70.3139 51.7207 66.9405 49.7202 63.5264 48.6366C60.1936 47.4697 56.2918 46.8862 51.8209 46.8862C43.2044 46.8862 35.9698 49.7619 30.1171 55.5133C24.2644 61.1813 21.338 68.6831 21.338 78.0187C21.338 87.2709 24.1831 94.731 29.8733 100.399C35.5634 105.984 42.4322 108.776 50.4797 108.776C58.6085 108.776 65.396 106.984 70.8423 103.4V79.394ZM115.815 121.904H102.158V29.132H115.815V121.904Z" fill="url(#paint1_linear_245_287)"/>
<path d="M324.054 54.388C332.751 54.388 340.189 57.4721 346.367 63.6402C352.545 69.8084 355.634 78.0187 355.634 88.2711C355.634 98.5236 352.545 106.859 346.367 113.277C340.27 119.695 333.117 122.904 324.907 122.904C316.778 122.904 309.462 119.237 302.959 111.902V146.16H289.303V55.3882H302.959V67.016C308.324 58.5973 315.356 54.388 324.054 54.388ZM302.716 88.7712C302.716 95.1061 304.585 100.316 308.324 104.4C312.064 108.401 316.616 110.401 321.981 110.401C327.346 110.401 332.02 108.401 336.003 104.4C339.986 100.399 341.977 95.2311 341.977 88.8963C341.977 82.4781 340.027 77.1851 336.125 73.0175C332.223 68.7664 327.549 66.6409 322.103 66.6409C316.656 66.6409 312.064 68.7664 308.324 73.0175C304.585 77.1851 302.716 82.4364 302.716 88.7712ZM431.582 94.7727H380.736C381.062 99.6072 383.216 103.525 387.199 106.525C391.182 109.443 395.734 110.902 400.855 110.902C408.984 110.902 415.162 108.276 419.389 103.025L427.192 111.777C420.202 119.195 411.097 122.904 399.88 122.904C390.776 122.904 383.013 119.82 376.591 113.652C370.25 107.401 367.08 99.0654 367.08 88.6462C367.08 78.1437 370.332 69.8084 376.835 63.6402C383.338 57.4721 390.979 54.388 399.758 54.388C408.618 54.388 416.137 57.1387 422.315 62.64C428.493 68.0579 431.582 75.5597 431.582 85.1454V94.7727ZM380.736 83.77H417.926C417.926 78.1854 416.219 73.8927 412.805 70.892C409.39 67.8912 405.163 66.3909 400.124 66.3909C395.165 66.3909 390.694 67.9746 386.711 71.142C382.728 74.2261 380.736 78.4354 380.736 83.77ZM456.964 55.3882L470.864 77.2685L485.252 55.3882H501.469L478.79 87.896L502.445 121.904H485.618L470.133 99.7739L455.013 121.904H439.04L462.085 88.0211L440.259 55.3882H456.964Z" fill="url(#paint2_linear_245_287)"/>
<defs>
<linearGradient id="paint0_linear_245_287" x1="202.203" y1="50.4462" x2="202.203" y2="122.512" gradientUnits="userSpaceOnUse">
<stop stop-color="#365461"/>
<stop offset="1" stop-color="#98B8D6"/>
</linearGradient>
<linearGradient id="paint1_linear_245_287" x1="62.998" y1="5.20956" x2="62.998" y2="174" gradientUnits="userSpaceOnUse">
<stop stop-color="#365461"/>
<stop offset="1" stop-color="#98B8D6"/>
</linearGradient>
<linearGradient id="paint2_linear_245_287" x1="392.213" y1="5.20956" x2="392.213" y2="174" gradientUnits="userSpaceOnUse">
<stop stop-color="#365461"/>
<stop offset="1" stop-color="#98B8D6"/>
</linearGradient>
</defs>
</svg>
