<svg width="505" height="173" viewBox="0 0 505 173" fill="none" xmlns="http://www.w3.org/2000/svg">
<path d="M237.343 50.1562C222.627 50.1562 211.965 61.3841 202.196 74.1308C192.427 61.3841 181.773 50.1562 167.064 50.1562C147.687 50.1562 131.923 66.2276 131.923 85.9821C131.912 90.6833 132.812 95.3405 134.572 99.6862C136.332 104.032 138.916 107.98 142.177 111.303C145.425 114.643 149.291 117.291 153.552 119.093C157.812 120.897 162.38 121.819 166.993 121.808H167.078C181.758 121.772 192.413 110.544 202.189 97.7975C211.965 110.566 222.627 121.808 237.343 121.808C256.72 121.808 272.484 105.736 272.484 85.9821C272.484 66.2276 256.72 50.1562 237.343 50.1562ZM167.049 107.478L166.993 114.643V107.478C161.377 107.478 156.1 105.242 152.136 101.187C149.198 98.1741 147.2 94.3428 146.394 90.1751C145.588 86.0074 146.009 81.6897 147.605 77.7658C149.202 73.8418 151.9 70.4871 155.363 68.1241C158.826 65.7611 162.897 64.4955 167.064 64.4866C176.411 64.4866 185.055 74.7901 193.391 85.9678C185.041 97.1382 176.396 107.456 167.049 107.478ZM237.343 107.478C227.996 107.478 219.345 97.1597 210.995 85.9678C219.338 74.7901 227.982 64.4866 237.343 64.4866C248.968 64.4866 258.427 74.1308 258.427 85.9821C258.427 97.8333 248.968 107.478 237.343 107.478Z" fill="url(#paint0_linear_245_291)"/>
<path d="M70.8423 78.9377H85.2302V108.648C77.1827 117.681 65.6805 122.198 50.7236 122.198C38.124 122.198 27.5566 117.971 19.0213 109.518C10.5674 101.065 6.34045 90.3744 6.34045 77.446C6.34045 64.5176 10.6487 53.7439 19.2652 45.125C27.963 36.5061 38.4491 32.1966 50.7236 32.1966C62.998 32.1966 73.1996 35.8431 81.3284 43.136L73.6467 54.3241C70.3139 51.4235 66.9405 49.4345 63.5264 48.3571C60.1936 47.1969 56.2918 46.6168 51.8209 46.6168C43.2044 46.6168 35.9698 49.4759 30.1171 55.1942C24.2644 60.8297 21.338 68.2884 21.338 77.5703C21.338 86.7693 24.1831 94.1866 29.8733 99.822C35.5634 105.375 42.4322 108.151 50.4797 108.151C58.6085 108.151 65.396 106.369 70.8423 102.805V78.9377ZM115.815 121.204H102.158V28.9645H115.815V121.204Z" fill="url(#paint1_linear_245_291)"/>
<path d="M324.054 54.0754C332.751 54.0754 340.189 57.1418 346.367 63.2745C352.545 69.4072 355.634 77.5703 355.634 87.7638C355.634 97.9574 352.545 106.245 346.367 112.626C340.27 119.007 333.117 122.198 324.907 122.198C316.778 122.198 309.462 118.552 302.959 111.259V145.32H289.303V55.0699H302.959V66.6309C308.324 58.2606 315.356 54.0754 324.054 54.0754ZM302.716 88.2611C302.716 94.5595 304.585 99.7391 308.324 103.8C312.064 107.778 316.616 109.767 321.981 109.767C327.346 109.767 332.02 107.778 336.003 103.8C339.986 99.822 341.977 94.6838 341.977 88.3854C341.977 82.0041 340.027 76.7415 336.125 72.5978C332.223 68.3712 327.549 66.258 322.103 66.258C316.656 66.258 312.064 68.3712 308.324 72.5978C304.585 76.7415 302.716 81.9626 302.716 88.2611ZM431.582 94.228H380.736C381.062 99.0347 383.216 102.93 387.199 105.913C391.182 108.814 395.734 110.264 400.855 110.264C408.984 110.264 415.162 107.654 419.389 102.433L427.192 111.134C420.202 118.51 411.097 122.198 399.88 122.198C390.776 122.198 383.013 119.132 376.591 112.999C370.25 106.783 367.08 98.496 367.08 88.1368C367.08 77.6946 370.332 69.4072 376.835 63.2745C383.338 57.1418 390.979 54.0754 399.758 54.0754C408.618 54.0754 416.137 56.8103 422.315 62.28C428.493 67.6668 431.582 75.1255 431.582 84.656V94.228ZM380.736 83.2886H417.926C417.926 77.736 416.219 73.468 412.805 70.4845C409.39 67.5011 405.163 66.0093 400.124 66.0093C395.165 66.0093 390.694 67.5839 386.711 70.7332C382.728 73.7995 380.736 77.9847 380.736 83.2886ZM456.964 55.0699L470.864 76.8244L485.252 55.0699H501.469L478.79 87.3909L502.445 121.204H485.618L470.133 99.2005L455.013 121.204H439.04L462.085 87.5152L440.259 55.0699H456.964Z" fill="url(#paint2_linear_245_291)"/>
<defs>
<linearGradient id="paint0_linear_245_291" x1="202.203" y1="50.1562" x2="202.203" y2="121.808" gradientUnits="userSpaceOnUse">
<stop stop-color="#8AAAC5"/>
<stop offset="1" stop-color="#547385"/>
</linearGradient>
<linearGradient id="paint1_linear_245_291" x1="62.998" y1="5.17963" x2="62.998" y2="173" gradientUnits="userSpaceOnUse">
<stop stop-color="#98B8D6"/>
<stop offset="1" stop-color="#365461"/>
</linearGradient>
<linearGradient id="paint2_linear_245_291" x1="392.213" y1="5.17963" x2="392.213" y2="173" gradientUnits="userSpaceOnUse">
<stop stop-color="#8AAAC5"/>
<stop offset="1" stop-color="#547385"/>
</linearGradient>
</defs>
</svg>
