<svg width="505" height="174" viewBox="0 0 505 174" fill="none" xmlns="http://www.w3.org/2000/svg">
<path d="M237.343 50.4461C222.627 50.4461 211.965 61.7388 202.196 74.5593C192.427 61.7388 181.773 50.4461 167.064 50.4461C147.687 50.4461 131.923 66.6104 131.923 86.479C131.912 91.2075 132.812 95.8916 134.572 100.262C136.332 104.633 138.916 108.604 142.177 111.947C145.425 115.306 149.291 117.969 153.552 119.782C157.812 121.596 162.38 122.523 166.993 122.512H167.078C181.758 122.476 192.413 111.183 202.189 98.3627C211.965 111.205 222.627 122.512 237.343 122.512C256.72 122.512 272.484 106.347 272.484 86.479C272.484 66.6104 256.72 50.4461 237.343 50.4461ZM167.049 108.099L166.993 115.306V108.099C161.377 108.099 156.1 105.85 152.136 101.771C149.198 98.7416 147.2 94.8881 146.394 90.6963C145.588 86.5046 146.009 82.1619 147.605 78.2153C149.202 74.2686 151.9 70.8945 155.363 68.5179C158.826 66.1411 162.897 64.8682 167.064 64.8593C176.411 64.8593 185.055 75.2224 193.391 86.4647C185.041 97.6997 176.396 108.077 167.049 108.099ZM237.343 108.099C227.996 108.099 219.345 97.7213 210.995 86.4647C219.338 75.2224 227.982 64.8593 237.343 64.8593C248.968 64.8593 258.427 74.5593 258.427 86.479C258.427 98.3988 248.968 108.099 237.343 108.099Z" fill="url(#paint0_linear_501_9)"/>
<path d="M70.8423 79.394H85.2302V109.276C77.1827 118.362 65.6805 122.904 50.7236 122.904C38.124 122.904 27.5566 118.653 19.0213 110.151C10.5674 101.649 6.34045 90.8968 6.34045 77.8937C6.34045 64.8906 10.6487 54.0546 19.2652 45.3859C27.963 36.7171 38.4491 32.3828 50.7236 32.3828C62.998 32.3828 73.1996 36.0503 81.3284 43.3854L73.6467 54.6381C70.3139 51.7207 66.9405 49.7203 63.5264 48.6367C60.1936 47.4697 56.2918 46.8862 51.8209 46.8862C43.2044 46.8862 35.9698 49.7619 30.1171 55.5133C24.2644 61.1813 21.338 68.6831 21.338 78.0187C21.338 87.2709 24.1831 94.731 29.8733 100.399C35.5634 105.984 42.4322 108.776 50.4797 108.776C58.6085 108.776 65.396 106.984 70.8423 103.4V79.394ZM115.815 121.904H102.158V29.132H115.815V121.904Z" fill="url(#paint1_linear_501_9)"/>
<path d="M324.054 54.388C332.751 54.388 340.189 57.4721 346.367 63.6402C352.545 69.8084 355.634 78.0187 355.634 88.2711C355.634 98.5236 352.545 106.859 346.367 113.277C340.27 119.695 333.117 122.904 324.907 122.904C316.778 122.904 309.462 119.237 302.959 111.902V146.16H289.303V55.3883H302.959V67.0161C308.324 58.5974 315.356 54.388 324.054 54.388ZM302.716 88.7713C302.716 95.1061 304.585 100.316 308.324 104.4C312.064 108.401 316.616 110.401 321.981 110.401C327.346 110.401 332.02 108.401 336.003 104.4C339.986 100.399 341.977 95.2311 341.977 88.8963C341.977 82.4781 340.027 77.1852 336.125 73.0175C332.223 68.7665 327.549 66.641 322.103 66.641C316.656 66.641 312.064 68.7665 308.324 73.0175C304.585 77.1852 302.716 82.4364 302.716 88.7713ZM431.582 94.7727H380.736C381.062 99.6072 383.216 103.525 387.199 106.526C391.182 109.443 395.734 110.902 400.855 110.902C408.984 110.902 415.162 108.276 419.389 103.025L427.192 111.777C420.202 119.195 411.097 122.904 399.88 122.904C390.776 122.904 383.013 119.82 376.591 113.652C370.25 107.401 367.08 99.0654 367.08 88.6462C367.08 78.1437 370.332 69.8084 376.835 63.6402C383.338 57.4721 390.979 54.388 399.758 54.388C408.618 54.388 416.137 57.1387 422.315 62.64C428.493 68.058 431.582 75.5598 431.582 85.1454V94.7727ZM380.736 83.7701H417.926C417.926 78.1854 416.219 73.8927 412.805 70.892C409.39 67.8913 405.163 66.3909 400.124 66.3909C395.165 66.3909 390.694 67.9746 386.711 71.142C382.728 74.2261 380.736 78.4355 380.736 83.7701ZM456.964 55.3883L470.864 77.2685L485.252 55.3883H501.469L478.79 87.8961L502.445 121.904H485.618L470.133 99.7739L455.013 121.904H439.04L462.085 88.0211L440.259 55.3883H456.964Z" fill="url(#paint2_linear_501_9)"/>
<path d="M424.12 162H411.88V134.04H422.76C424.653 134.04 426.28 134.267 427.64 134.72C429.027 135.173 430.053 135.787 430.72 136.56C432 138 432.64 139.627 432.64 141.44C432.64 143.627 431.947 145.253 430.56 146.32C430.053 146.693 429.707 146.933 429.52 147.04C429.333 147.12 429 147.267 428.52 147.48C430.253 147.853 431.627 148.64 432.64 149.84C433.68 151.013 434.2 152.48 434.2 154.24C434.2 156.187 433.533 157.907 432.2 159.4C430.627 161.133 427.933 162 424.12 162ZM416.6 145.64H422.6C426.013 145.64 427.72 144.48 427.72 142.16C427.72 140.827 427.307 139.867 426.48 139.28C425.653 138.693 424.373 138.4 422.64 138.4H416.6V145.64ZM416.6 157.64H424C425.733 157.64 427.053 157.373 427.96 156.84C428.893 156.28 429.36 155.24 429.36 153.72C429.36 151.24 427.373 150 423.4 150H416.6V157.64ZM459.282 153.32H442.602C442.709 154.867 443.416 156.12 444.722 157.08C446.029 158.013 447.522 158.48 449.202 158.48C451.869 158.48 453.896 157.64 455.282 155.96L457.842 158.76C455.549 161.133 452.562 162.32 448.882 162.32C445.896 162.32 443.349 161.333 441.242 159.36C439.162 157.36 438.122 154.693 438.122 151.36C438.122 148 439.189 145.333 441.322 143.36C443.456 141.387 445.962 140.4 448.842 140.4C451.749 140.4 454.216 141.28 456.242 143.04C458.269 144.773 459.282 147.173 459.282 150.24V153.32ZM442.602 149.8H454.802C454.802 148.013 454.242 146.64 453.122 145.68C452.002 144.72 450.616 144.24 448.962 144.24C447.336 144.24 445.869 144.747 444.562 145.76C443.256 146.747 442.602 148.093 442.602 149.8ZM469.729 144.32V155.12C469.729 156.133 469.995 156.947 470.529 157.56C471.062 158.147 471.809 158.44 472.769 158.44C473.729 158.44 474.649 157.973 475.529 157.04L477.369 160.2C475.795 161.613 474.049 162.32 472.129 162.32C470.235 162.32 468.609 161.667 467.249 160.36C465.915 159.027 465.249 157.24 465.249 155V144.32H462.569V140.72H465.249V134.04H469.729V140.72H475.329V144.32H469.729ZM498.168 162H494.088V159.16C492.328 161.267 489.968 162.32 487.008 162.32C484.794 162.32 482.954 161.693 481.488 160.44C480.048 159.187 479.328 157.52 479.328 155.44C479.328 153.333 480.101 151.76 481.648 150.72C483.194 149.68 485.288 149.16 487.928 149.16H493.728V148.36C493.728 145.533 492.154 144.12 489.008 144.12C487.034 144.12 484.981 144.84 482.848 146.28L480.848 143.48C483.434 141.427 486.368 140.4 489.648 140.4C492.154 140.4 494.194 141.04 495.768 142.32C497.368 143.573 498.168 145.56 498.168 148.28V162ZM493.688 154.08V152.28H488.648C485.421 152.28 483.808 153.293 483.808 155.32C483.808 156.36 484.208 157.16 485.008 157.72C485.808 158.253 486.914 158.52 488.328 158.52C489.768 158.52 491.021 158.12 492.088 157.32C493.154 156.52 493.688 155.44 493.688 154.08Z" fill="url(#paint3_linear_501_9)"/>
<defs>
<linearGradient id="paint0_linear_501_9" x1="202.203" y1="50.4461" x2="202.203" y2="122.512" gradientUnits="userSpaceOnUse">
<stop stop-color="#365461"/>
<stop offset="1" stop-color="#98B8D6"/>
</linearGradient>
<linearGradient id="paint1_linear_501_9" x1="62.998" y1="5.20959" x2="62.998" y2="174" gradientUnits="userSpaceOnUse">
<stop stop-color="#365461"/>
<stop offset="1" stop-color="#98B8D6"/>
</linearGradient>
<linearGradient id="paint2_linear_501_9" x1="392.213" y1="5.20959" x2="392.213" y2="174" gradientUnits="userSpaceOnUse">
<stop stop-color="#365461"/>
<stop offset="1" stop-color="#98B8D6"/>
</linearGradient>
<linearGradient id="paint3_linear_501_9" x1="455" y1="125" x2="455" y2="165" gradientUnits="userSpaceOnUse">
<stop stop-color="#7A99B2"/>
<stop offset="1" stop-color="#B5CDE2"/>
</linearGradient>
</defs>
</svg>
