<svg width="961" height="230" viewBox="0 0 961 230" fill="none" xmlns="http://www.w3.org/2000/svg">
<path d="M53.6 30.6C46.8 30.6 41.2 32 36.8 34.8C32.4 37.6 30.2 41.8666 30.2 47.6C30.2 53.2 32.4 57.5333 36.8 60.6C41.2 63.5333 50.5333 66.7333 64.8 70.2C79.2 73.6666 90 78.5333 97.2 84.8C104.533 91.0666 108.2 100.333 108.2 112.6C108.2 124.733 103.6 134.6 94.4 142.2C85.2 149.8 73.1333 153.6 58.2 153.6C36.3333 153.6 16.9333 146.067 0 131L14.8 113.2C28.9333 125.467 43.6 131.6 58.8 131.6C66.4 131.6 72.4 130 76.8 126.8C81.3333 123.467 83.6 119.133 83.6 113.8C83.6 108.333 81.4667 104.133 77.2 101.2C73.0667 98.1333 65.8667 95.4 55.6 93C45.3333 90.4666 37.5333 88.2 32.2 86.2C26.8667 84.0666 22.1333 81.3333 18 78C9.73333 71.7333 5.6 62.1333 5.6 49.2C5.6 36.2666 10.2667 26.3333 19.6 19.4C29.0667 12.3333 40.7333 8.79996 54.6 8.79996C63.5333 8.79996 72.4 10.2666 81.2 13.2C90 16.1333 97.6 20.2666 104 25.6L91.4 43.4C87.2667 39.6666 81.6667 36.6 74.6 34.2C67.5333 31.8 60.5333 30.6 53.6 30.6Z" fill="url(#paint0_linear_701_21)"/>
<path d="M233.177 108.6H149.777C150.31 116.333 153.843 122.6 160.377 127.4C166.91 132.067 174.377 134.4 182.777 134.4C196.11 134.4 206.243 130.2 213.177 121.8L225.977 135.8C214.51 147.667 199.577 153.6 181.177 153.6C166.243 153.6 153.51 148.667 142.977 138.8C132.577 128.8 127.377 115.467 127.377 98.8C127.377 82 132.71 68.6666 143.377 58.8C154.043 48.9333 166.577 44 180.977 44C195.51 44 207.843 48.4 217.977 57.2C228.11 65.8666 233.177 77.8666 233.177 93.2V108.6ZM149.777 91H210.777C210.777 82.0666 207.977 75.2 202.377 70.4C196.777 65.6 189.843 63.2 181.577 63.2C173.443 63.2 166.11 65.7333 159.577 70.8C153.043 75.7333 149.777 82.4666 149.777 91Z" fill="url(#paint1_linear_701_21)"/>
<path d="M344.009 152H323.609V137.8C314.809 148.333 303.009 153.6 288.209 153.6C277.143 153.6 267.943 150.467 260.609 144.2C253.409 137.933 249.809 129.6 249.809 119.2C249.809 108.667 253.676 100.8 261.409 95.6C269.143 90.4 279.609 87.8 292.809 87.8H321.809V83.8C321.809 69.6666 313.943 62.6 298.209 62.6C288.343 62.6 278.076 66.2 267.409 73.4L257.409 59.4C270.343 49.1333 285.009 44 301.409 44C313.943 44 324.143 47.2 332.009 53.6C340.009 59.8666 344.009 69.8 344.009 83.4V152ZM321.609 112.4V103.4H296.409C280.276 103.4 272.209 108.467 272.209 118.6C272.209 123.8 274.209 127.8 278.209 130.6C282.209 133.267 287.743 134.6 294.809 134.6C302.009 134.6 308.276 132.6 313.609 128.6C318.943 124.6 321.609 119.2 321.609 112.4Z" fill="url(#paint2_linear_701_21)"/>
<path d="M430.992 66.6C419.926 66.6 411.592 70.2 405.992 77.4C400.392 84.6 397.592 94.2666 397.592 106.4V152H375.192V45.6H397.592V67C401.192 60.3333 406.059 54.8666 412.192 50.6C418.459 46.3333 425.059 44.1333 431.992 44L432.192 66.6C431.792 66.6 431.392 66.6 430.992 66.6Z" fill="url(#paint3_linear_701_21)"/>
<path d="M501.884 153.6C487.084 153.6 474.351 148.6 463.684 138.6C453.018 128.467 447.684 115.267 447.684 99C447.684 82.7333 453.218 69.5333 464.284 59.4C475.484 49.1333 489.084 44 505.084 44C521.084 44 534.618 49.5333 545.684 60.6L532.484 76.8C523.284 68.8 514.018 64.8 504.684 64.8C495.351 64.8 487.218 67.9333 480.284 74.2C473.484 80.3333 470.084 88.3333 470.084 98.2C470.084 107.933 473.484 116.2 480.284 123C487.084 129.8 495.418 133.2 505.284 133.2C515.284 133.2 524.684 128.667 533.484 119.6L546.684 134C533.751 147.067 518.818 153.6 501.884 153.6Z" fill="url(#paint4_linear_701_21)"/>
<path d="M592.319 94.4V152H569.919V3.79995H592.319V65C595.519 58.4666 600.319 53.3333 606.719 49.6C613.252 45.8666 620.252 44 627.719 44C639.719 44 649.385 47.6666 656.719 55C664.185 62.3333 667.919 72.9333 667.919 86.8V152H645.519V93.6C645.519 74 637.385 64.2 621.119 64.2C613.385 64.2 606.652 66.8 600.919 72C595.185 77.0666 592.319 84.5333 592.319 94.4Z" fill="url(#paint5_linear_701_21)"/>
<path d="M721.616 152H699.216V45.6H721.616V152ZM700.616 24.4C697.816 21.6 696.416 18.2666 696.416 14.4C696.416 10.5333 697.816 7.19996 700.616 4.39996C703.416 1.59995 706.749 0.199951 710.616 0.199951C714.482 0.199951 717.816 1.59995 720.616 4.39996C723.416 7.19996 724.816 10.5333 724.816 14.4C724.816 18.2666 723.416 21.6 720.616 24.4C717.816 27.2 714.482 28.6 710.616 28.6C706.749 28.6 703.416 27.2 700.616 24.4Z" fill="url(#paint6_linear_701_21)"/>
<path d="M776.498 94.4V152H754.098V45.6H776.498V65C780.098 58.4666 785.032 53.3333 791.298 49.6C797.698 45.8666 804.565 44 811.898 44C823.898 44 833.565 47.6666 840.898 55C848.365 62.3333 852.098 72.9333 852.098 86.8V152H829.698V93.6C829.698 74 821.565 64.2 805.298 64.2C797.565 64.2 790.832 66.8 785.098 72C779.365 77.0666 776.498 84.5333 776.498 94.4Z" fill="url(#paint7_linear_701_21)"/>
<path d="M812.48 228.92H788V173H809.76C813.547 173 816.8 173.453 819.52 174.36C822.293 175.267 824.347 176.493 825.68 178.04C828.24 180.92 829.52 184.173 829.52 187.8C829.52 192.173 828.133 195.427 825.36 197.56C824.347 198.307 823.653 198.787 823.28 199C822.907 199.16 822.24 199.453 821.28 199.88C824.747 200.627 827.493 202.2 829.52 204.6C831.6 206.947 832.64 209.88 832.64 213.4C832.64 217.293 831.307 220.733 828.64 223.72C825.493 227.187 820.107 228.92 812.48 228.92ZM797.44 196.2H809.44C816.267 196.2 819.68 193.88 819.68 189.24C819.68 186.573 818.853 184.653 817.2 183.48C815.547 182.307 812.987 181.72 809.52 181.72H797.44V196.2ZM797.44 220.2H812.24C815.707 220.2 818.347 219.667 820.16 218.6C822.027 217.48 822.96 215.4 822.96 212.36C822.96 207.4 818.987 204.92 811.04 204.92H797.44V220.2Z" fill="url(#paint8_linear_701_21)"/>
<path d="M882.804 211.56H849.444C849.658 214.653 851.071 217.16 853.684 219.08C856.298 220.947 859.284 221.88 862.644 221.88C867.978 221.88 872.031 220.2 874.804 216.84L879.924 222.44C875.338 227.187 869.364 229.56 862.004 229.56C856.031 229.56 850.938 227.587 846.724 223.64C842.564 219.64 840.484 214.307 840.484 207.64C840.484 200.92 842.618 195.587 846.884 191.64C851.151 187.693 856.164 185.72 861.924 185.72C867.738 185.72 872.671 187.48 876.724 191C880.778 194.467 882.804 199.267 882.804 205.4V211.56ZM849.444 204.52H873.844C873.844 200.947 872.724 198.2 870.484 196.28C868.244 194.36 865.471 193.4 862.164 193.4C858.911 193.4 855.978 194.413 853.364 196.44C850.751 198.413 849.444 201.107 849.444 204.52Z" fill="url(#paint9_linear_701_21)"/>
<path d="M903.698 193.56V215.16C903.698 217.187 904.231 218.813 905.298 220.04C906.364 221.213 907.858 221.8 909.778 221.8C911.698 221.8 913.538 220.867 915.298 219L918.978 225.32C915.831 228.147 912.337 229.56 908.497 229.56C904.711 229.56 901.458 228.253 898.738 225.64C896.071 222.973 894.738 219.4 894.738 214.92V193.56H889.378V186.36H894.738V173H903.698V186.36H914.897V193.56H903.698Z" fill="url(#paint10_linear_701_21)"/>
<path d="M960.575 228.92H952.415V223.24C948.895 227.453 944.175 229.56 938.255 229.56C933.828 229.56 930.148 228.307 927.215 225.8C924.335 223.293 922.895 219.96 922.895 215.8C922.895 211.587 924.442 208.44 927.535 206.36C930.628 204.28 934.815 203.24 940.095 203.24H951.695V201.64C951.695 195.987 948.548 193.16 942.255 193.16C938.308 193.16 934.202 194.6 929.935 197.48L925.935 191.88C931.108 187.773 936.975 185.72 943.535 185.72C948.548 185.72 952.628 187 955.775 189.56C958.975 192.067 960.575 196.04 960.575 201.48V228.92ZM951.615 213.08V209.48H941.535C935.082 209.48 931.855 211.507 931.855 215.56C931.855 217.64 932.655 219.24 934.255 220.36C935.855 221.427 938.068 221.96 940.895 221.96C943.775 221.96 946.282 221.16 948.415 219.56C950.548 217.96 951.615 215.8 951.615 213.08Z" fill="url(#paint11_linear_701_21)"/>
<defs>
<linearGradient id="paint0_linear_701_21" x1="426" y1="-12" x2="438.5" y2="173" gradientUnits="userSpaceOnUse">
<stop stop-color="#365461"/>
<stop offset="1" stop-color="#98B8D6"/>
</linearGradient>
<linearGradient id="paint1_linear_701_21" x1="426" y1="-12" x2="438.5" y2="173" gradientUnits="userSpaceOnUse">
<stop stop-color="#365461"/>
<stop offset="1" stop-color="#98B8D6"/>
</linearGradient>
<linearGradient id="paint2_linear_701_21" x1="426" y1="-12" x2="438.5" y2="173" gradientUnits="userSpaceOnUse">
<stop stop-color="#365461"/>
<stop offset="1" stop-color="#98B8D6"/>
</linearGradient>
<linearGradient id="paint3_linear_701_21" x1="426" y1="-12" x2="438.5" y2="173" gradientUnits="userSpaceOnUse">
<stop stop-color="#365461"/>
<stop offset="1" stop-color="#98B8D6"/>
</linearGradient>
<linearGradient id="paint4_linear_701_21" x1="426" y1="-12" x2="438.5" y2="173" gradientUnits="userSpaceOnUse">
<stop stop-color="#365461"/>
<stop offset="1" stop-color="#98B8D6"/>
</linearGradient>
<linearGradient id="paint5_linear_701_21" x1="426" y1="-12" x2="438.5" y2="173" gradientUnits="userSpaceOnUse">
<stop stop-color="#365461"/>
<stop offset="1" stop-color="#98B8D6"/>
</linearGradient>
<linearGradient id="paint6_linear_701_21" x1="426" y1="-12" x2="438.5" y2="173" gradientUnits="userSpaceOnUse">
<stop stop-color="#365461"/>
<stop offset="1" stop-color="#98B8D6"/>
</linearGradient>
<linearGradient id="paint7_linear_701_21" x1="426" y1="-12" x2="438.5" y2="173" gradientUnits="userSpaceOnUse">
<stop stop-color="#365461"/>
<stop offset="1" stop-color="#98B8D6"/>
</linearGradient>
<linearGradient id="paint8_linear_701_21" x1="866.5" y1="167.5" x2="891" y2="254.5" gradientUnits="userSpaceOnUse">
<stop stop-color="#98B8D6"/>
<stop offset="1" stop-color="#E8EFF4"/>
</linearGradient>
<linearGradient id="paint9_linear_701_21" x1="866.5" y1="167.5" x2="891" y2="254.5" gradientUnits="userSpaceOnUse">
<stop stop-color="#98B8D6"/>
<stop offset="1" stop-color="#E8EFF4"/>
</linearGradient>
<linearGradient id="paint10_linear_701_21" x1="866.5" y1="167.5" x2="891" y2="254.5" gradientUnits="userSpaceOnUse">
<stop stop-color="#98B8D6"/>
<stop offset="1" stop-color="#E8EFF4"/>
</linearGradient>
<linearGradient id="paint11_linear_701_21" x1="866.5" y1="167.5" x2="891" y2="254.5" gradientUnits="userSpaceOnUse">
<stop stop-color="#98B8D6"/>
<stop offset="1" stop-color="#E8EFF4"/>
</linearGradient>
</defs>
</svg>
