<svg width="180" height="112" viewBox="0 0 180 112" fill="none" xmlns="http://www.w3.org/2000/svg">
<path d="M94.2 109.599H73.8V95.3986C65 105.932 53.2 111.199 38.4 111.199C27.3333 111.199 18.1333 108.065 10.8 101.799C3.6 95.5319 0 87.1986 0 76.7986C0 66.2652 3.86667 58.3986 11.6 53.1986C19.3333 47.9986 29.8 45.3986 43 45.3986H72V41.3986C72 27.2652 64.1333 20.1986 48.4 20.1986C38.5333 20.1986 28.2667 23.7986 17.6 30.9986L7.6 16.9986C20.5333 6.73189 35.2 1.59856 51.6 1.59856C64.1333 1.59856 74.3333 4.79856 82.2 11.1986C90.2 17.4652 94.2 27.3986 94.2 40.9986V109.599ZM71.8 69.9986V60.9986H46.6C30.4667 60.9986 22.4 66.0652 22.4 76.1986C22.4 81.3986 24.4 85.3986 28.4 88.1986C32.4 90.8652 37.9333 92.1986 45 92.1986C52.2 92.1986 58.4667 90.1986 63.8 86.1986C69.1333 82.1986 71.8 76.7986 71.8 69.9986Z" fill="#365461"/>
<path d="M179.6 64.6H96.2C96.7333 72.3333 100.267 78.6 106.8 83.4C113.333 88.0667 120.8 90.4 129.2 90.4C142.533 90.4 152.667 86.2 159.6 77.8L172.4 91.8C160.933 103.667 146 109.6 127.6 109.6C112.667 109.6 99.9333 104.667 89.4 94.8C79 84.8 73.8 71.4667 73.8 54.8C73.8 38 79.1333 24.6667 89.8 14.8C100.467 4.93333 113 0 127.4 0C141.933 0 154.267 4.4 164.4 13.2C174.533 21.8667 179.6 33.8667 179.6 49.2V64.6ZM96.2 47H157.2C157.2 38.0667 154.4 31.2 148.8 26.4C143.2 21.6 136.267 19.2 128 19.2C119.867 19.2 112.533 21.7333 106 26.8C99.4667 31.7333 96.2 38.4667 96.2 47Z" fill="#365461"/>
</svg>
