<svg width="234" height="234" viewBox="0 0 234 234" fill="none" xmlns="http://www.w3.org/2000/svg">
<rect width="234" height="234" rx="20" fill="#365461"/>
<path d="M121.2 170.599H100.8V156.399C92 166.932 80.2 172.199 65.4 172.199C54.3333 172.199 45.1333 169.065 37.8 162.799C30.6 156.532 27 148.199 27 137.799C27 127.265 30.8667 119.399 38.6 114.199C46.3333 108.999 56.8 106.399 70 106.399H99V102.399C99 88.2652 91.1333 81.1986 75.4 81.1986C65.5333 81.1986 55.2667 84.7986 44.6 91.9986L34.6 77.9986C47.5333 67.7319 62.2 62.5986 78.6 62.5986C91.1333 62.5986 101.333 65.7986 109.2 72.1986C117.2 78.4652 121.2 88.3986 121.2 101.999V170.599ZM98.8 130.999V121.999H73.6C57.4667 121.999 49.4 127.065 49.4 137.199C49.4 142.399 51.4 146.399 55.4 149.199C59.4 151.865 64.9333 153.199 72 153.199C79.2 153.199 85.4667 151.199 90.8 147.199C96.1333 143.199 98.8 137.799 98.8 130.999Z" fill="white"/>
<path d="M206.6 125.6H123.2C123.733 133.333 127.267 139.6 133.8 144.4C140.333 149.067 147.8 151.4 156.2 151.4C169.533 151.4 179.667 147.2 186.6 138.8L199.4 152.8C187.933 164.667 173 170.6 154.6 170.6C139.667 170.6 126.933 165.667 116.4 155.8C106 145.8 100.8 132.467 100.8 115.8C100.8 99 106.133 85.6667 116.8 75.8C127.467 65.9333 140 61 154.4 61C168.933 61 181.267 65.4 191.4 74.2C201.533 82.8667 206.6 94.8667 206.6 110.2V125.6ZM123.2 108H184.2C184.2 99.0667 181.4 92.2 175.8 87.4C170.2 82.6 163.267 80.2 155 80.2C146.867 80.2 139.533 82.7333 133 87.8C126.467 92.7333 123.2 99.4667 123.2 108Z" fill="white"/>
</svg>
